<svg id="visual" viewBox="0 0 960 540" width="960" height="540" xmlns="http://www.w3.org/2000/svg" xmlns:xlink="http://www.w3.org/1999/xlink" version="1.1"><rect x="0" y="0" width="960" height="540" fill="#FFFFFF"></rect><path d="M0 351L17.8 358.7C35.7 366.3 71.3 381.7 106.8 385.7C142.3 389.7 177.7 382.3 213.2 374.5C248.7 366.7 284.3 358.3 320 359.2C355.7 360 391.3 370 426.8 373.3C462.3 376.7 497.7 373.3 533.2 374.3C568.7 375.3 604.3 380.7 640 381.7C675.7 382.7 711.3 379.3 746.8 377.2C782.3 375 817.7 374 853.2 373.2C888.7 372.3 924.3 371.7 942.2 371.3L960 371L960 541L942.2 541C924.3 541 888.7 541 853.2 541C817.7 541 782.3 541 746.8 541C711.3 541 675.7 541 640 541C604.3 541 568.7 541 533.2 541C497.7 541 462.3 541 426.8 541C391.3 541 355.7 541 320 541C284.3 541 248.7 541 213.2 541C177.7 541 142.3 541 106.8 541C71.3 541 35.7 541 17.8 541L0 541Z" fill="#3536e6"></path><path d="M0 362L17.8 370.8C35.7 379.7 71.3 397.3 106.8 403.7C142.3 410 177.7 405 213.2 405.2C248.7 405.3 284.3 410.7 320 404C355.7 397.3 391.3 378.7 426.8 373.7C462.3 368.7 497.7 377.3 533.2 386.5C568.7 395.7 604.3 405.3 640 409.7C675.7 414 711.3 413 746.8 407.2C782.3 401.3 817.7 390.7 853.2 385.7C888.7 380.7 924.3 381.3 942.2 381.7L960 382L960 541L942.2 541C924.3 541 888.7 541 853.2 541C817.7 541 782.3 541 746.8 541C711.3 541 675.7 541 640 541C604.3 541 568.7 541 533.2 541C497.7 541 462.3 541 426.8 541C391.3 541 355.7 541 320 541C284.3 541 248.7 541 213.2 541C177.7 541 142.3 541 106.8 541C71.3 541 35.7 541 17.8 541L0 541Z" fill="#0084f7"></path><path d="M0 404L17.8 407.3C35.7 410.7 71.3 417.3 106.8 419.5C142.3 421.7 177.7 419.3 213.2 418.8C248.7 418.3 284.3 419.7 320 422.2C355.7 424.7 391.3 428.3 426.8 424.7C462.3 421 497.7 410 533.2 405.5C568.7 401 604.3 403 640 406C675.7 409 711.3 413 746.8 419.7C782.3 426.3 817.7 435.7 853.2 440.7C888.7 445.7 924.3 446.3 942.2 446.7L960 447L960 541L942.2 541C924.3 541 888.7 541 853.2 541C817.7 541 782.3 541 746.8 541C711.3 541 675.7 541 640 541C604.3 541 568.7 541 533.2 541C497.7 541 462.3 541 426.8 541C391.3 541 355.7 541 320 541C284.3 541 248.7 541 213.2 541C177.7 541 142.3 541 106.8 541C71.3 541 35.7 541 17.8 541L0 541Z" fill="#05b2dc"></path><path d="M0 442L17.8 444.3C35.7 446.7 71.3 451.3 106.8 454.3C142.3 457.3 177.7 458.7 213.2 459.2C248.7 459.7 284.3 459.3 320 458.3C355.7 457.3 391.3 455.7 426.8 457C462.3 458.3 497.7 462.7 533.2 458C568.7 453.3 604.3 439.7 640 439.7C675.7 439.7 711.3 453.3 746.8 457.2C782.3 461 817.7 455 853.2 451C888.7 447 924.3 445 942.2 444L960 443L960 541L942.2 541C924.3 541 888.7 541 853.2 541C817.7 541 782.3 541 746.8 541C711.3 541 675.7 541 640 541C604.3 541 568.7 541 533.2 541C497.7 541 462.3 541 426.8 541C391.3 541 355.7 541 320 541C284.3 541 248.7 541 213.2 541C177.7 541 142.3 541 106.8 541C71.3 541 35.7 541 17.8 541L0 541Z" fill="#05b2dc"></path><path d="M0 492L17.8 488.5C35.7 485 71.3 478 106.8 477.3C142.3 476.7 177.7 482.3 213.2 482.5C248.7 482.7 284.3 477.3 320 474.3C355.7 471.3 391.3 470.7 426.8 468.5C462.3 466.3 497.7 462.7 533.2 460C568.7 457.3 604.3 455.7 640 458.3C675.7 461 711.3 468 746.8 471.8C782.3 475.7 817.7 476.3 853.2 474.7C888.7 473 924.3 469 942.2 467L960 465L960 541L942.2 541C924.3 541 888.7 541 853.2 541C817.7 541 782.3 541 746.8 541C711.3 541 675.7 541 640 541C604.3 541 568.7 541 533.2 541C497.7 541 462.3 541 426.8 541C391.3 541 355.7 541 320 541C284.3 541 248.7 541 213.2 541C177.7 541 142.3 541 106.8 541C71.3 541 35.7 541 17.8 541L0 541Z" fill="#0084f7"></path><path d="M0 502L17.8 499.3C35.7 496.7 71.3 491.3 106.8 491.8C142.3 492.3 177.7 498.7 213.2 500.5C248.7 502.3 284.3 499.7 320 499.2C355.7 498.7 391.3 500.3 426.8 499.2C462.3 498 497.7 494 533.2 493C568.7 492 604.3 494 640 493.7C675.7 493.3 711.3 490.7 746.8 490C782.3 489.3 817.7 490.7 853.2 492.7C888.7 494.7 924.3 497.3 942.2 498.7L960 500L960 541L942.2 541C924.3 541 888.7 541 853.2 541C817.7 541 782.3 541 746.8 541C711.3 541 675.7 541 640 541C604.3 541 568.7 541 533.2 541C497.7 541 462.3 541 426.8 541C391.3 541 355.7 541 320 541C284.3 541 248.7 541 213.2 541C177.7 541 142.3 541 106.8 541C71.3 541 35.7 541 17.8 541L0 541Z" fill="#3536e6"></path></svg>