<svg id="visual" viewBox="0 0 400 900" width="400" height="900" xmlns="http://www.w3.org/2000/svg" xmlns:xlink="http://www.w3.org/1999/xlink" version="1.1"><rect x="0" y="0" width="400" height="900" fill="#ffffff"></rect><defs><linearGradient id="grad1_0" x1="0%" y1="0%" x2="100%" y2="100%"><stop offset="30%" stop-color="#ffffff" stop-opacity="1"></stop><stop offset="70%" stop-color="#ffffff" stop-opacity="1"></stop></linearGradient></defs><defs><linearGradient id="grad2_0" x1="0%" y1="0%" x2="100%" y2="100%"><stop offset="30%" stop-color="#ffffff" stop-opacity="1"></stop><stop offset="70%" stop-color="#ffffff" stop-opacity="1"></stop></linearGradient></defs><g transform="translate(400, 0)"><path d="M0 120C-15.5 115.7 -31 111.3 -42.9 103.5C-54.7 95.6 -63 84.3 -75 75C-87 65.6 -102.7 58.1 -110.9 45.9C-119 33.7 -119.5 16.9 -120 0L0 0Z" fill="#0066FF"></path></g><g transform="translate(0, 900)"><path d="M0 -120C11.5 -108.2 23 -96.5 38.3 -92.4C53.6 -88.3 72.6 -91.9 84.9 -84.9C97.1 -77.9 102.5 -60.3 107.2 -44.4C111.9 -28.5 115.9 -14.2 120 0L0 0Z" fill="#0066FF"></path></g></svg>